<?xml version="1.0" encoding="utf-8"?>
<!-- Generator: Adobe Illustrator 27.5.0, SVG Export Plug-In . SVG Version: 6.00 Build 0)  -->
<svg version="1.1" xmlns="http://www.w3.org/2000/svg" xmlns:xlink="http://www.w3.org/1999/xlink" x="0px" y="0px"
	 viewBox="0 0 500 500" style="enable-background:new 0 0 500 500;" xml:space="preserve">
<g id="Background_Complete">
	<path style="fill:#EBEBEB;" d="M237.014,337.8H43.915c-3.147,0-5.708-2.561-5.708-5.708V60.66c0-3.147,2.561-5.708,5.708-5.708
		h193.099c3.146,0,5.707,2.561,5.707,5.708v271.432C242.721,335.239,240.16,337.8,237.014,337.8z M43.915,55.203
		c-3.01,0-5.458,2.448-5.458,5.458v271.432c0,3.01,2.448,5.458,5.458,5.458h193.099c3.009,0,5.457-2.448,5.457-5.458V60.66
		c0-3.009-2.448-5.458-5.457-5.458H43.915z"/>
	<g>
		<path style="fill:#EBEBEB;" d="M453.31,337.8H260.212c-3.147,0-5.707-2.561-5.707-5.708V60.66c0-3.147,2.561-5.708,5.707-5.708
			H453.31c3.148,0,5.708,2.561,5.708,5.708v271.432C459.019,335.239,456.458,337.8,453.31,337.8z M260.212,55.203
			c-3.009,0-5.457,2.448-5.457,5.458v271.432c0,3.01,2.448,5.458,5.457,5.458H453.31c3.01,0,5.458-2.448,5.458-5.458V60.66
			c0-3.009-2.448-5.458-5.458-5.458H260.212z"/>
	</g>
	<rect y="382.398" style="fill:#EBEBEB;" width="500" height="0.25"/>
	<path style="fill:#EBEBEB;" d="M237.014,337.8H43.915c-3.147,0-5.708-2.561-5.708-5.708V60.66c0-3.147,2.561-5.708,5.708-5.708
		h193.099c3.146,0,5.707,2.561,5.707,5.708v271.432C242.721,335.239,240.16,337.8,237.014,337.8z M43.915,55.203
		c-3.01,0-5.458,2.448-5.458,5.458v271.432c0,3.01,2.448,5.458,5.458,5.458h193.099c3.009,0,5.457-2.448,5.457-5.458V60.66
		c0-3.009-2.448-5.458-5.457-5.458H43.915z"/>
	<g>
		<path style="fill:#EBEBEB;" d="M453.31,337.8H260.212c-3.147,0-5.707-2.561-5.707-5.708V60.66c0-3.147,2.561-5.708,5.707-5.708
			H453.31c3.148,0,5.708,2.561,5.708,5.708v271.432C459.019,335.239,456.458,337.8,453.31,337.8z M260.212,55.203
			c-3.009,0-5.457,2.448-5.457,5.458v271.432c0,3.01,2.448,5.458,5.457,5.458H453.31c3.01,0,5.458-2.448,5.458-5.458V60.66
			c0-3.009-2.448-5.458-5.458-5.458H260.212z"/>
	</g>
	<rect y="382.398" style="fill:#EBEBEB;" width="500" height="0.25"/>
	<rect x="416.779" y="398.494" style="fill:#EBEBEB;" width="33.122" height="0.25"/>
	<rect x="322.527" y="401.208" style="fill:#EBEBEB;" width="8.693" height="0.25"/>
	<rect x="396.586" y="389.208" style="fill:#EBEBEB;" width="19.192" height="0.25"/>
	<rect x="52.459" y="390.888" style="fill:#EBEBEB;" width="43.193" height="0.25"/>
	<rect x="131.471" y="395.111" style="fill:#EBEBEB;" width="93.676" height="0.25"/>
	<path style="fill:#E0E0E0;" d="M433.847,389.158H290.486c-10.863,0-19.669-8.806-19.669-19.669V326.82
		c0-10.863,8.806-19.669,19.669-19.669h143.361c10.863,0,19.669,8.806,19.669,19.669v42.669
		C453.516,380.352,444.71,389.158,433.847,389.158z"/>
	<path style="fill:#F5F5F5;" d="M424.22,389.764H280.859c-10.863,0-19.669-8.806-19.669-19.669v-42.669
		c0-10.863,8.806-19.669,19.669-19.669H424.22c10.863,0,19.669,8.806,19.669,19.669v42.669
		C443.889,380.957,435.083,389.764,424.22,389.764z"/>
	<path style="fill:#E0E0E0;" d="M435.515,346.084H270.639v-16.857c0-7.587,6.151-13.738,13.738-13.738h137.4
		c7.587,0,13.738,6.151,13.738,13.738V346.084z"/>
	<path style="fill:#E0E0E0;" d="M421.777,380.82h-137.4c-7.587,0-13.738-6.151-13.738-13.738v-16.857h164.876v16.857
		C435.515,374.669,429.364,380.82,421.777,380.82z"/>
	<g>
		<rect x="368.357" y="321.412" style="fill:#E6E6E6;" width="23.367" height="24.875"/>
		<rect x="362.372" y="321.412" style="fill:#F5F5F5;" width="5.985" height="24.875"/>
		<rect x="380.299" y="317.576" style="fill:#E6E6E6;" width="17.553" height="28.711"/>
		<rect x="375.231" y="317.576" style="fill:#F5F5F5;" width="5.075" height="28.711"/>
		<rect x="385.47" y="321.412" style="fill:#EBEBEB;" width="14.8" height="24.875"/>
		<rect x="382.09" y="321.412" style="fill:#F5F5F5;" width="3.381" height="24.875"/>
		<rect x="397.583" y="325.621" style="fill:#E6E6E6;" width="19.412" height="20.666"/>
		<rect x="392.613" y="325.621" style="fill:#F5F5F5;" width="4.97" height="20.666"/>
		<rect x="407.502" y="322.434" style="fill:#E6E6E6;" width="14.583" height="23.852"/>
		<rect x="403.293" y="322.434" style="fill:#F5F5F5;" width="4.217" height="23.852"/>
		<rect x="411.801" y="325.621" style="fill:#E6E6E6;" width="14.165" height="20.666"/>
		<rect x="408.987" y="325.621" style="fill:#F0F0F0;" width="2.806" height="20.666"/>
	</g>
	<g>
		<rect x="295.64" y="355.003" style="fill:#E6E6E6;" width="23.367" height="24.875"/>
		<rect x="289.655" y="355.003" style="fill:#F5F5F5;" width="5.985" height="24.875"/>
		<rect x="307.582" y="351.167" style="fill:#E6E6E6;" width="17.553" height="28.711"/>
		<rect x="302.514" y="351.167" style="fill:#F5F5F5;" width="5.075" height="28.711"/>
		<rect x="375.359" y="355.003" style="fill:#E6E6E6;" width="23.367" height="24.875"/>
		<rect x="369.373" y="355.003" style="fill:#F5F5F5;" width="5.985" height="24.875"/>
		<rect x="387.3" y="351.167" style="fill:#E6E6E6;" width="17.553" height="28.711"/>
		<rect x="382.232" y="351.167" style="fill:#F5F5F5;" width="5.075" height="28.711"/>
		<rect x="312.754" y="355.003" style="fill:#EBEBEB;" width="14.8" height="24.875"/>
		<rect x="309.373" y="355.003" style="fill:#F5F5F5;" width="3.381" height="24.875"/>
		<rect x="324.866" y="359.212" style="fill:#E6E6E6;" width="19.412" height="20.666"/>
		<rect x="319.896" y="359.212" style="fill:#F5F5F5;" width="4.97" height="20.666"/>
		<rect x="334.785" y="356.025" style="fill:#E6E6E6;" width="14.583" height="23.852"/>
		<rect x="330.576" y="356.025" style="fill:#F5F5F5;" width="4.217" height="23.852"/>
		<rect x="339.084" y="359.212" style="fill:#E6E6E6;" width="14.165" height="20.666"/>
		<rect x="336.27" y="359.212" style="fill:#F0F0F0;" width="2.806" height="20.666"/>
	</g>
	<g>
		<g>
			<g>
				<g>
					
						<rect x="182.564" y="376.378" transform="matrix(-1 -1.224647e-16 1.224647e-16 -1 408.6601 763.5808)" style="fill:#EBEBEB;" width="43.532" height="10.824"/>
					
						<rect x="182.705" y="376.425" transform="matrix(-1 -1.224647e-16 1.224647e-16 -1 408.9424 763.675)" style="opacity:0.1;fill:#FFFFFF;enable-background:new    ;" width="43.532" height="10.824"/>
					
						<rect x="182.564" y="376.425" transform="matrix(-1 -1.224647e-16 1.224647e-16 -1 398.5419 763.675)" style="opacity:0.6;fill:#FFFFFF;enable-background:new    ;" width="33.414" height="10.824"/>
					<polygon style="fill:#E0E0E0;enable-background:new    ;" points="182.776,385.826 226.098,387.17 226.049,386.073 
						182.752,385.508 					"/>
					<polygon style="fill:#E0E0E0;enable-background:new    ;" points="226.098,380.819 182.843,378.387 182.843,378.752 
						226.098,381.643 					"/>
					<polygon style="fill:#E0E0E0;enable-background:new    ;" points="226.098,377.551 182.843,378.541 182.843,378.897 
						226.098,378.374 					"/>
					<polygon style="fill:#E0E0E0;enable-background:new    ;" points="226.219,382.946 182.957,385.053 182.957,384.736 
						226.219,382.225 					"/>
				</g>
				<polygon style="fill:#E0E0E0;enable-background:new    ;" points="182.671,376.52 225.925,376.555 225.925,376.911 
					182.671,376.911 				"/>
			</g>
			<g>
				
					<rect x="185.686" y="344.141" transform="matrix(-1 -1.224647e-16 1.224647e-16 -1 414.9036 699.1065)" style="fill:#E0E0E0;" width="43.532" height="10.824"/>
				
					<rect x="185.944" y="344.576" transform="matrix(-1 -1.224647e-16 1.224647e-16 -1 415.4199 699.9751)" style="opacity:0.5;fill:#FFFFFF;enable-background:new    ;" width="43.532" height="10.824"/>
				
					<rect x="185.686" y="344.188" transform="matrix(-1 -1.224647e-16 1.224647e-16 -1 404.7854 699.2005)" style="opacity:0.6;fill:#FFFFFF;enable-background:new    ;" width="33.414" height="10.824"/>
				<polygon style="fill:#E0E0E0;enable-background:new    ;" points="185.898,353.589 229.219,354.933 229.171,353.836 
					185.874,353.271 				"/>
				<polygon style="fill:#E0E0E0;enable-background:new    ;" points="229.219,348.582 185.965,346.15 185.965,346.514 
					229.219,349.406 				"/>
				<polygon style="fill:#E0E0E0;enable-background:new    ;" points="229.219,345.313 185.965,346.304 185.965,346.66 
					229.219,346.137 				"/>
				<polygon style="fill:#E0E0E0;enable-background:new    ;" points="229.341,350.708 186.079,352.816 186.079,352.499 
					229.341,349.988 				"/>
			</g>
			<g>
				
					<rect x="185.145" y="365.405" transform="matrix(-1 -1.224647e-16 1.224647e-16 -1 413.8212 741.6345)" style="fill:#E0E0E0;" width="43.532" height="10.824"/>
				
					<rect x="185.286" y="365.452" transform="matrix(-1 -1.224647e-16 1.224647e-16 -1 414.1035 741.7285)" style="opacity:0.5;fill:#FFFFFF;enable-background:new    ;" width="43.532" height="10.824"/>
				<rect x="185.24" y="365.452" style="opacity:0.6;fill:#FFFFFF;enable-background:new    ;" width="33.414" height="10.824"/>
				<polygon style="fill:#E0E0E0;enable-background:new    ;" points="228.49,374.535 185.193,375.1 185.145,376.197 
					228.466,374.853 				"/>
				<polygon style="fill:#E0E0E0;enable-background:new    ;" points="185.424,365.546 228.678,365.582 228.678,365.938 
					185.424,365.938 				"/>
				<polygon style="fill:#E0E0E0;enable-background:new    ;" points="185.145,370.67 228.399,367.779 228.399,367.414 
					185.145,369.846 				"/>
				<polygon style="fill:#E0E0E0;enable-background:new    ;" points="228.678,366.577 185.424,367.568 185.424,367.924 
					228.678,367.401 				"/>
				<polygon style="fill:#E0E0E0;enable-background:new    ;" points="228.8,371.973 185.538,374.08 185.538,373.763 228.8,371.251 
									"/>
			</g>
			<g>
				<polygon style="fill:#E0E0E0;" points="227.171,355.201 183.656,355.419 183.593,366.025 227.171,366.025 				"/>
				
					<rect x="183.639" y="355.201" transform="matrix(-1 -1.224647e-16 1.224647e-16 -1 410.8092 721.2254)" style="opacity:0.5;fill:#FFFFFF;enable-background:new    ;" width="43.532" height="10.824"/>
				<rect x="183.593" y="355.201" style="opacity:0.6;fill:#FFFFFF;enable-background:new    ;" width="33.414" height="10.824"/>
				<polygon style="fill:#E0E0E0;enable-background:new    ;" points="218.315,355.419 183.656,355.419 183.656,356.521 
					217.571,356.521 				"/>
				<polygon style="fill:#E0E0E0;enable-background:new    ;" points="226.919,359.854 183.656,360.258 183.656,360.575 
					226.919,360.575 				"/>
				<polygon style="fill:#E0E0E0;enable-background:new    ;" points="183.656,364.862 226.919,362.754 226.919,363.071 
					183.656,365.583 				"/>
				<polygon style="fill:#E0E0E0;enable-background:new    ;" points="183.656,360.792 226.919,361.656 226.919,361.965 
					183.656,361.513 				"/>
			</g>
			<g>
				<rect x="195.029" y="331.655" style="fill:#E0E0E0;" width="43.254" height="5.45"/>
				<rect x="195.029" y="331.655" style="opacity:0.5;fill:#FFFFFF;enable-background:new    ;" width="43.254" height="5.45"/>
				<rect x="195.029" y="331.655" style="opacity:0.6;fill:#FFFFFF;enable-background:new    ;" width="34.469" height="5.45"/>
				<polygon style="fill:#E0E0E0;enable-background:new    ;" points="238.307,335.521 195.053,335.735 195.053,335.894 
					238.307,335.894 				"/>
				<polygon style="fill:#E0E0E0;enable-background:new    ;" points="195.053,333.484 238.307,332.382 238.307,332.549 
					195.053,333.856 				"/>
				<polygon style="fill:#E0E0E0;enable-background:new    ;" points="194.912,333.185 238.166,333.629 238.166,333.795 
					194.912,333.557 				"/>
			</g>
			<g>
				<g>
					<rect x="188.975" y="329.255" style="fill:#E0E0E0;" width="43.254" height="2.627"/>
					<rect x="188.975" y="329.277" style="opacity:0.5;fill:#FFFFFF;enable-background:new    ;" width="43.254" height="2.604"/>
					<rect x="188.975" y="329.114" style="opacity:0.6;fill:#FFFFFF;enable-background:new    ;" width="34.469" height="2.768"/>
				</g>
				<polygon style="fill:#E0E0E0;enable-background:new    ;" points="188.999,331.256 232.253,330.155 232.253,330.321 
					188.999,331.628 				"/>
				<polygon style="fill:#E0E0E0;enable-background:new    ;" points="188.999,329.938 232.253,330.382 232.253,330.548 
					188.999,330.31 				"/>
			</g>
			<g>
				<g>
					<rect x="193.006" y="326.573" style="fill:#E0E0E0;" width="43.254" height="2.627"/>
					<rect x="193.006" y="326.595" style="opacity:0.5;fill:#FFFFFF;enable-background:new    ;" width="43.254" height="2.604"/>
					<rect x="193.006" y="326.432" style="opacity:0.6;fill:#FFFFFF;enable-background:new    ;" width="34.469" height="2.768"/>
				</g>
				<polygon style="fill:#E0E0E0;enable-background:new    ;" points="193.031,327.76 236.296,328.286 236.29,328.453 
					193.017,328.132 				"/>
				<polygon style="fill:#E0E0E0;enable-background:new    ;" points="193.029,327.255 236.283,327.699 236.283,327.865 
					193.029,327.628 				"/>
			</g>
			<g>
				<rect x="192.103" y="337.106" style="fill:#E0E0E0;" width="43.254" height="7.019"/>
				<rect x="192.103" y="337.106" style="opacity:0.5;fill:#FFFFFF;enable-background:new    ;" width="43.254" height="7.019"/>
				<rect x="192.103" y="337.106" style="opacity:0.6;fill:#FFFFFF;enable-background:new    ;" width="33.375" height="7.019"/>
				<polygon style="fill:#E0E0E0;enable-background:new    ;" points="235.083,339.287 191.828,339.042 191.828,338.852 
					235.083,338.852 				"/>
				<polygon style="fill:#E0E0E0;enable-background:new    ;" points="192.126,340.306 235.381,341.574 235.381,341.384 
					192.126,339.878 				"/>
				<polygon style="fill:#E0E0E0;enable-background:new    ;" points="235.381,337.114 194.582,337.114 195.485,337.977 
					235.381,337.977 				"/>
				<polygon style="fill:#E0E0E0;enable-background:new    ;" points="192.275,343.04 235.53,342.517 235.53,342.335 
					192.275,342.604 				"/>
			</g>
		</g>
	</g>
	<g>
		<g>
			<g>
				<g>
					<path style="fill:#EBEBEB;" d="M318.815,322.17c-0.498-0.98-1.633-1.547-2.666-1.331s-1.878,1.198-1.985,2.304
						c-0.73-0.546-1.775-0.574-2.53-0.067c-0.755,0.507-1.176,1.518-1.018,2.449c-0.823-0.665-2.173-0.39-2.704,0.55
						c-0.531,0.941-0.119,2.327,0.826,2.777c-0.643,0.046-1.195,0.688-1.178,1.368c0.017,0.681,0.6,1.29,1.244,1.301
						c-0.652,0.015-1.251,0.588-1.329,1.271c-0.079,0.684,0.373,1.392,1.002,1.572c-0.662,0.294-0.829,1.381-0.29,1.882
						c0.539,0.5,1.538,0.183,1.727-0.548c0.101,0.211,0.413,0.261,0.568,0.09c0.155-0.171,0.095-0.498-0.109-0.596
						c0.298,0.42,1.059,0.225,1.142-0.292c-0.224,1.199,1.206,2.326,2.229,1.758c-0.295,0.501,0.122,1.199,0.66,1.355
						c0.538,0.156,1.106-0.064,1.612-0.314c0.506-0.25,1.022-0.541,1.581-0.533c0.489,0.007,0.945,0.243,1.414,0.393
						c1.488,0.477,3.208,0.023,4.309-1.138c0.773,1.038,2.606,0.759,3.07-0.468c0.12,0.589,0.64,1.059,1.209,1.092
						c0.569,0.034,1.135-0.373,1.316-0.944c0.012,0.262,0.023,0.525,0.035,0.787c1.072,0.254,2.131-1.13,1.672-2.186
						c0.765,0.014,1.49-0.647,1.588-1.449c0.099-0.802-0.441-1.637-1.185-1.831c1.261-0.354,2.224-1.662,2.238-3.042
						c0.014-1.379-0.922-2.709-2.176-3.091c-0.494-0.151-1.075-0.147-1.469,0.201c-0.395,0.349-0.447,1.115-0.006,1.395
						c0.379-1.237-0.183-2.719-1.266-3.336c-1.083-0.617-2.563-0.3-3.332,0.715c0.375-0.526,0.382-1.311,0.017-1.844
						c-0.365-0.533-1.073-0.771-1.663-0.559c-0.147-0.849-0.993-1.491-1.801-1.366c-0.808,0.125-1.445,0.997-1.355,1.855
						c-0.093-0.717-1.208-0.927-1.529-0.288C318.228,321.937,318.815,322.17,318.815,322.17z"/>
				</g>
			</g>
			<g>
				<g>
					<path style="fill:#FAFAFA;" d="M319.115,330.154c-0.331-0.23-0.749-0.354-1.143-0.275c-0.395,0.079-0.752,0.384-0.833,0.779
						c-0.081,0.395,0.164,0.846,0.556,0.941c0.476,0.115,0.953-0.277,1.438-0.209c0.173,0.025,0.333,0.107,0.502,0.152
						c0.697,0.186,1.388-0.269,1.967-0.7c0.204-0.152,0.412-0.308,0.548-0.523c0.136-0.214,0.186-0.502,0.058-0.722
						c-0.178-0.306-0.6-0.35-0.952-0.31c-0.705,0.081-1.385,0.365-1.938,0.81c0.018-0.11,0.036-0.221,0.054-0.331L319.115,330.154z"
						/>
				</g>
				<g>
					<path style="fill:#FAFAFA;" d="M329.248,329.555c-0.189-0.132-0.384-0.268-0.609-0.32c-0.225-0.053-0.489-0.005-0.631,0.177
						c-0.195,0.249-0.071,0.639,0.176,0.837c0.247,0.197,0.576,0.252,0.888,0.301c0.321,0.05,0.727,0.061,0.885-0.222
						c0.116-0.207,0.023-0.48-0.15-0.642c-0.173-0.162-0.406-0.239-0.632-0.312L329.248,329.555z"/>
				</g>
				<g>
					<path style="fill:#FAFAFA;" d="M313.24,324.285c-0.645,0.27-1.144,0.866-1.294,1.549c-0.045,0.206-0.039,0.465,0.141,0.575
						c0.128,0.078,0.292,0.046,0.437,0.011c0.618-0.147,1.237-0.294,1.855-0.44c-0.296,0.114-0.599,0.232-0.836,0.444
						c-0.236,0.212-0.395,0.54-0.318,0.848c0.091,0.361,0.487,0.583,0.859,0.578c0.373-0.005,0.719-0.19,1.022-0.408
						c0.323-0.232,0.639-0.553,0.645-0.95c0.006-0.398-0.495-0.766-0.8-0.511c0.707-0.192,1.382-0.5,1.991-0.907
						c0.22-0.147,0.437-0.313,0.576-0.539c0.139-0.226,0.186-0.524,0.059-0.756c-0.634-1.152-1.435,0.538-1.825,0.688
						C315.014,324.751,314.18,323.892,313.24,324.285z"/>
					<path style="fill:#FAFAFA;" d="M310.357,329.201c-0.065,0.225-0.021,0.497,0.163,0.643c0.183,0.146,0.508,0.097,0.592-0.122
						c-0.414,0.129-0.856,0.278-1.114,0.627c-0.258,0.349-0.194,0.958,0.218,1.093c0.257,0.084,0.532-0.042,0.77-0.172
						c0.672-0.367,1.314-0.79,1.916-1.263c-0.184,0.425,0.259,0.907,0.72,0.947c0.461,0.04,0.893-0.21,1.288-0.45
						c0.485-0.295,1.042-0.745,0.914-1.299c-0.111-0.482-0.727-0.695-1.201-0.554c-0.474,0.141-0.83,0.523-1.162,0.89
						c0.26-0.379-0.109-0.942-0.565-1.003c-0.443-0.06-0.884,0.21-1.16,0.536c0.516-0.283,0.631-1.021-0.06-1.106
						C311.228,327.912,310.466,328.827,310.357,329.201z"/>
					<path style="fill:#FAFAFA;" d="M324.514,327.545c-0.39-0.146-0.878,0.108-0.983,0.51c-0.105,0.402,0.197,0.862,0.608,0.925
						c-0.302,0.026-0.592,0.177-0.786,0.41c-0.108,0.129-0.19,0.296-0.165,0.463c0.036,0.25,0.302,0.414,0.554,0.423
						c0.252,0.009,0.492-0.098,0.722-0.202c-0.249,0.023-0.513,0.052-0.71,0.206c-0.198,0.153-0.283,0.478-0.106,0.654
						c0.148,0.147,0.393,0.123,0.594,0.066c0.452-0.127,0.873-0.363,1.215-0.684c0.257,0.285,0.639,0.491,1.018,0.429
						c0.379-0.062,0.701-0.465,0.582-0.831c-0.085-0.261-0.357-0.425-0.629-0.458c-0.272-0.033-0.545,0.042-0.805,0.126
						c0.267-0.189,0.549-0.401,0.647-0.713c0.098-0.312-0.113-0.731-0.44-0.706c-0.367,0.029-0.554,0.528-0.844,0.708
						C324.628,328.535,325.297,327.838,324.514,327.545z"/>
					<g>
						<path style="fill:#FAFAFA;" d="M317.904,326.02c-0.417,0.283-0.562,0.84-0.533,1.343c0.032,0.556,0.285,1.149,0.794,1.372
							c0.671,0.293,1.508-0.265,1.631-0.986c0.123-0.721-0.35-1.455-1-1.793C318.797,325.956,318.321,325.737,317.904,326.02z"/>
					</g>
					<g>
						<path style="fill:#FAFAFA;" d="M322.586,325.42c0.058,0.05,0.115,0.099,0.173,0.149c-0.284-0.36-0.885-0.407-1.222-0.097
							c-0.337,0.311-0.339,0.913-0.004,1.226c0.335,0.313,0.936,0.27,1.223-0.088c0.484,0.225,1.122,0.137,1.463-0.274
							c0.34-0.411,0.263-1.127-0.201-1.391c-0.464-0.263-1.17,0.132-1.121,0.663c-0.067-0.075-0.134-0.15-0.201-0.224
							L322.586,325.42z"/>
					</g>
					<g>
						<path style="fill:#FAFAFA;" d="M327.754,326.254c-0.331,0.326-0.676,0.675-0.798,1.124c-0.122,0.449,0.079,1.02,0.53,1.135
							c0.448,0.114,0.873-0.256,1.128-0.641c0.231-0.348,0.407-0.781,0.274-1.176s-0.703-0.63-0.987-0.325L327.754,326.254z"/>
					</g>
					<path style="fill:#FAFAFA;" d="M320.307,323.543c-0.169-0.376-0.704-0.508-1.054-0.29c-0.35,0.218-0.479,0.709-0.326,1.092
						c0.153,0.383,0.546,0.643,0.957,0.688c0.508,0.056,1.108-0.355,0.994-0.853c0.219,0.289,0.612,0.403,0.973,0.368
						c0.361-0.035,0.695-0.199,1.009-0.38c0.426-0.245,0.881-0.625,0.836-1.115c-0.036-0.39-0.414-0.691-0.804-0.727
						c-0.39-0.036-0.775,0.145-1.073,0.4c-0.234,0.2-0.429,0.447-0.682,0.622c-0.253,0.175-0.598,0.269-0.869,0.123L320.307,323.543
						z"/>
				</g>
			</g>
		</g>
		<g>
			<polygon style="fill:#F0F0F0;" points="326.667,346.283 313.861,346.283 312.607,333.376 327.921,333.376 			"/>
			<polygon style="fill:#FAFAFA;" points="328.912,334.042 311.488,334.042 311.175,332.325 329.226,332.325 			"/>
		</g>
	</g>
	<g>
		<g>
			<polygon style="fill:#E0E0E0;" points="429.53,306.842 414.83,306.842 419.436,292.002 420.11,289.832 423.435,289.832 			"/>
			<polygon style="fill:#E0E0E0;" points="420.11,289.832 419.436,292.002 414.83,306.842 401.241,306.64 396.872,292.002 
				396.198,289.832 			"/>
			<polygon style="fill:#FAFAFA;" points="420.11,289.832 419.436,292.002 414.83,306.842 386.919,306.428 392.866,289.832 			"/>
			<polygon style="fill:#EBEBEB;" points="420.11,289.832 419.436,292.002 392.095,292.002 392.866,289.832 			"/>
		</g>
		<g>
			<g>
				<path style="fill:#EBEBEB;" d="M396.298,299.052h-6.129l2.138-6.037l5.862,0.066L396.298,299.052z M390.876,298.552h5.054
					l1.56-4.979l-4.832-0.054L390.876,298.552z"/>
			</g>
			<g>
				<path style="fill:#EBEBEB;" d="M403.154,299.052h-6.129l2.138-6.037l5.862,0.066L403.154,299.052z M397.733,298.552h5.054
					l1.559-4.979l-4.831-0.054L397.733,298.552z"/>
			</g>
			<g>
				<path style="fill:#EBEBEB;" d="M410.011,299.052h-6.129l2.139-6.037l5.862,0.066L410.011,299.052z M404.59,298.552h5.054
					l1.56-4.979l-4.832-0.054L404.59,298.552z"/>
			</g>
			<g>
				<path style="fill:#EBEBEB;" d="M416.868,299.052h-6.128l2.138-6.037l5.861,0.066L416.868,299.052z M411.447,298.552h5.054
					l1.56-4.979l-4.831-0.054L411.447,298.552z"/>
			</g>
		</g>
		<g>
			<g>
				<path style="fill:#EBEBEB;" d="M394.159,305.457h-6.129l2.138-6.037l5.862,0.066L394.159,305.457z M388.738,304.957h5.054
					l1.56-4.979l-4.832-0.054L388.738,304.957z"/>
			</g>
			<g>
				<path style="fill:#EBEBEB;" d="M401.016,305.457h-6.128l2.138-6.037l5.861,0.066L401.016,305.457z M395.595,304.957h5.054
					l1.56-4.979l-4.831-0.054L395.595,304.957z"/>
			</g>
			<g>
				<path style="fill:#EBEBEB;" d="M407.872,305.457h-6.129l2.139-6.037l5.862,0.066L407.872,305.457z M402.451,304.957h5.054
					l1.56-4.979l-4.832-0.054L402.451,304.957z"/>
			</g>
			<g>
				<path style="fill:#EBEBEB;" d="M414.729,305.457H408.6l2.138-6.037l5.861,0.066L414.729,305.457z M409.308,304.957h5.054
					l1.56-4.979l-4.831-0.054L409.308,304.957z"/>
			</g>
		</g>
	</g>
	<g>
		<path style="fill:#F0F0F0;" d="M359.936,307.151h-17.144v-9.837c0-4.734,3.838-8.572,8.572-8.572l0,0
			c4.734,0,8.572,3.838,8.572,8.572V307.151z"/>
		<g>
			<g>
				<g>
					<g>
						<circle style="fill:#FFFFFF;" cx="351.262" cy="297.769" r="7.232"/>
						<path style="fill:#EBEBEB;" d="M356.964,297.769c0,3.206-2.598,5.804-5.804,5.804s-5.804-2.599-5.804-5.804
							s2.599-5.804,5.804-5.804S356.964,294.563,356.964,297.769z"/>
					</g>
					<g>
						<g>
							<path style="fill:#FAFAFA;" d="M351.84,297.9c0,0.346-0.28,0.626-0.626,0.626s-0.626-0.28-0.626-0.626
								c0-0.346,0.28-0.626,0.626-0.626S351.84,297.554,351.84,297.9z"/>
						</g>
						<g>
							<polygon style="fill:#FAFAFA;" points="351.142,298.13 348.487,295.631 348.745,295.357 351.151,297.621 355.462,293.812 
								355.711,294.094 							"/>
						</g>
					</g>
				</g>
			</g>
		</g>
	</g>
</g>
<g id="Background_Simple" style="display:none;">
	<g style="display:inline;">
		<g>
			<path style="fill:#407BFF;" d="M238.371,73.396c-22.113,1.613-43.137,14.314-54.853,33.137
				c-11.716,18.823-13.829,43.296-5.513,63.848c6.671,16.487,19.244,29.795,31.915,42.275
				c12.671,12.481,25.934,24.829,34.591,40.366s12.047,35.222,4.002,51.084c-9.803,19.327-32.742,27.379-53.631,33.145
				c-20.889,5.766-43.892,12.375-55.597,30.612c-4.376,6.819-6.354,16.747-0.561,22.413c4.796,4.691,12.466,4.18,19.124,3.353
				c45.123-5.61,90.246-11.219,135.369-16.829c27.518-3.421,56.166-7.249,79.204-22.683c27.751-18.591,43.043-51.742,47.41-84.858
				c2.417-18.331,1.787-37.543-5.569-54.507c-9.909-22.852-30.529-38.853-48.887-55.687c-20.008-18.348-42.091-34.74-59.448-55.613
				C278.113,70.007,238.371,73.396,238.371,73.396z"/>
			<g style="opacity:0.9;">
				<path style="fill:#FFFFFF;" d="M238.371,73.396c-22.113,1.613-43.137,14.314-54.853,33.137
					c-11.716,18.823-13.829,43.296-5.513,63.848c6.671,16.487,19.244,29.795,31.915,42.275
					c12.671,12.481,25.934,24.829,34.591,40.366s12.047,35.222,4.002,51.084c-9.803,19.327-32.742,27.379-53.631,33.145
					c-20.889,5.766-43.892,12.375-55.597,30.612c-4.376,6.819-6.354,16.747-0.561,22.413c4.796,4.691,12.466,4.18,19.124,3.353
					c45.123-5.61,90.246-11.219,135.369-16.829c27.518-3.421,56.166-7.249,79.204-22.683c27.751-18.591,43.043-51.742,47.41-84.858
					c2.417-18.331,1.787-37.543-5.569-54.507c-9.909-22.852-30.529-38.853-48.887-55.687c-20.008-18.348-42.091-34.74-59.448-55.613
					C278.113,70.007,238.371,73.396,238.371,73.396z"/>
			</g>
		</g>
	</g>
</g>
<g id="Shadow">
	<rect x="104.556" y="390.888" style="fill:#EBEBEB;" width="6.333" height="0.25"/>
	<ellipse id="_x3C_Path_x3E__359_" style="fill:#F5F5F5;" cx="250" cy="415.693" rx="193.889" ry="11.323"/>
</g>
<g id="Projection">
	<g>
		<g>
			<g>
				<g>
					<polygon style="fill:#407BFF;" points="448.494,265.518 51.455,265.518 50.331,63.754 447.37,63.754 					"/>
					<polygon style="opacity:0.7;" points="448.494,265.518 51.455,265.518 50.331,63.754 447.37,63.754 					"/>
				</g>
				<rect x="56.085" y="69.924" style="fill:#FFFFFF;" width="384.156" height="152.348"/>
				<polygon style="opacity:0.5;fill:#FFFFFF;" points="56.085,222.271 440.241,222.271 236.748,263.773 				"/>
			</g>
			<g>
				<polygon style="fill:#263238;" points="215.121,205.245 151.523,122.957 89.104,152.776 88.242,150.971 152.117,120.456 
					215.671,202.688 277.933,169.605 341.402,178.792 341.116,180.772 278.293,171.679 				"/>
			</g>
			<circle style="fill:#407BFF;" cx="88.673" cy="151.873" r="5.296"/>
			<path style="fill:#407BFF;" d="M157.115,122.256c0,2.925-2.371,5.296-5.296,5.296c-2.925,0-5.296-2.371-5.296-5.296
				c0-2.925,2.371-5.296,5.296-5.296C154.744,116.96,157.115,119.331,157.115,122.256z"/>
			<path style="fill:#407BFF;" d="M220.262,203.367c0,2.925-2.371,5.296-5.296,5.296c-2.925,0-5.296-2.371-5.296-5.296
				c0-2.925,2.371-5.296,5.296-5.296C217.891,198.071,220.262,200.442,220.262,203.367z"/>
			<path style="fill:#407BFF;" d="M283.409,171.708c0,2.925-2.371,5.296-5.296,5.296c-2.925,0-5.296-2.371-5.296-5.296
				c0-2.925,2.371-5.296,5.296-5.296C281.038,166.412,283.409,168.783,283.409,171.708z"/>
			<path style="fill:#407BFF;" d="M346.555,180.311c0,2.925-2.371,5.296-5.296,5.296c-2.925,0-5.296-2.371-5.296-5.296
				c0-2.925,2.371-5.296,5.296-5.296C344.184,175.015,346.555,177.386,346.555,180.311z"/>
			<path style="fill:#407BFF;" d="M409.702,112.487c0,2.925-2.371,5.296-5.296,5.296c-2.925,0-5.296-2.371-5.296-5.296
				s2.371-5.296,5.296-5.296C407.331,107.191,409.702,109.562,409.702,112.487z"/>
			<polygon style="fill:#263238;" points="390.934,144.239 386.166,139.238 341.259,180.298 377.374,130.018 372.606,125.017 
				398.416,118.756 			"/>
		</g>
		<g>
			<g>
				<path style="fill:#407BFF;" d="M81.307,77.876c1.319,0,1.883,0.78,1.883,2.051v1.008c0,1.331-0.624,2.027-1.955,2.027h-0.828
					v3.31h-0.936v-8.396H81.307z M81.234,82.121c0.696,0,1.032-0.324,1.032-1.127v-1.115c0-0.768-0.276-1.151-0.959-1.151h-0.9
					v3.394H81.234z"/>
				<path style="fill:#407BFF;" d="M84.751,84.58l-0.324,1.691h-0.864l1.607-8.396h1.355l1.607,8.396h-0.936l-0.324-1.691H84.751z
					 M84.871,83.776h1.871l-0.947-4.845L84.871,83.776z"/>
				<path style="fill:#407BFF;" d="M92.502,79.891v0.228h-0.888v-0.276c0-0.755-0.288-1.199-0.96-1.199
					c-0.671,0-0.959,0.444-0.959,1.188c0,1.883,2.818,2.063,2.818,4.426c0,1.271-0.611,2.099-1.895,2.099
					c-1.284,0-1.883-0.828-1.883-2.099v-0.48h0.875v0.528c0,0.755,0.312,1.199,0.983,1.199c0.672,0,0.984-0.444,0.984-1.199
					c0-1.871-2.807-2.051-2.807-4.414c0-1.295,0.6-2.099,1.859-2.099C91.902,77.791,92.502,78.619,92.502,79.891z"/>
				<path style="fill:#407BFF;" d="M94.543,86.271v-7.544h-1.547v-0.852h4.018v0.852h-1.547v7.544H94.543z"/>
			</g>
			<g>
				<path style="fill:#407BFF;" d="M239.7,86.271h-0.839v-8.396h1.188l1.943,6.069v-6.069h0.828v8.396h-0.972l-2.147-6.788V86.271z"
					/>
				<path style="fill:#407BFF;" d="M243.709,79.902c0-1.283,0.636-2.111,1.919-2.111c1.295,0,1.931,0.828,1.931,2.111v4.342
					c0,1.271-0.636,2.111-1.931,2.111c-1.283,0-1.919-0.839-1.919-2.111V79.902z M244.632,84.292c0,0.768,0.324,1.211,0.996,1.211
					c0.684,0,0.996-0.444,0.996-1.211v-4.438c0-0.755-0.312-1.211-0.996-1.211c-0.671,0-0.996,0.456-0.996,1.211V84.292z"/>
				<path style="fill:#407BFF;" d="M250.679,86.271h-1.283l-1.151-8.396h0.912l0.983,7.148l0.936-7.136h0.923l0.923,7.148
					l0.948-7.16h0.816l-1.139,8.396h-1.235l-0.804-5.697L250.679,86.271z"/>
			</g>
			<g>
				<path style="fill:#407BFF;" d="M395.611,81.412v0.852h-1.931v3.634h-0.936v-8.396h3.335v0.851h-2.399v3.059H395.611z"/>
				<path style="fill:#407BFF;" d="M397.712,83.918c0,0.756,0.3,1.211,0.983,1.211c0.672,0,0.972-0.456,0.972-1.211v-6.416h0.876
					v6.369c0,1.271-0.588,2.123-1.883,2.123c-1.284,0-1.871-0.851-1.871-2.123v-6.369h0.923V83.918z"/>
				<path style="fill:#407BFF;" d="M402.679,85.897v-7.544h-1.547v-0.851h4.018v0.851h-1.547v7.544H402.679z"/>
				<path style="fill:#407BFF;" d="M406.676,83.918c0,0.756,0.3,1.211,0.983,1.211c0.672,0,0.972-0.456,0.972-1.211v-6.416h0.875
					v6.369c0,1.271-0.588,2.123-1.883,2.123c-1.284,0-1.871-0.851-1.871-2.123v-6.369h0.923V83.918z"/>
				<path style="fill:#407BFF;" d="M412.303,77.502c1.319,0,1.871,0.672,1.871,1.919v0.684c0,0.924-0.324,1.5-1.043,1.727
					c0.767,0.228,1.056,0.852,1.056,1.751v1.308c0,0.372,0.012,0.719,0.167,1.007h-0.947c-0.108-0.24-0.156-0.456-0.156-1.02v-1.319
					c0-0.947-0.444-1.247-1.224-1.247h-0.66v3.586h-0.936v-8.396H412.303z M412.063,81.46c0.744,0,1.188-0.24,1.188-1.151v-0.804
					c0-0.755-0.276-1.151-0.972-1.151h-0.912v3.107H412.063z"/>
				<path style="fill:#407BFF;" d="M418.147,81.22v0.839h-2.051v2.986h2.519v0.852h-3.454v-8.396h3.454v0.851h-2.519v2.867H418.147z
					"/>
			</g>
		</g>
	</g>
</g>
<g id="Table">
	<g>
		<g>
			<g id="Monitor_Screen">
				<g id="PC">
					<g>
						<polygon style="fill:#407BFF;" points="126.573,284.482 67.638,284.745 70.741,247.37 129.675,247.108 						"/>
						<path style="fill:#407BFF;" d="M125.775,287.41l-58.075,0.259c-1.647,0.007-2.872-1.323-2.736-2.971l3.083-37.141
							c0.137-1.648,1.583-2.99,3.231-2.998l58.075-0.259c1.648-0.007,2.872,1.323,2.735,2.971l-3.083,37.141
							C128.869,286.061,127.422,287.403,125.775,287.41z"/>
						<g style="opacity:0.7;">
							<polygon style="fill:#407BFF;" points="126.573,284.482 67.638,284.745 70.741,247.37 129.675,247.108 							"/>
							<path style="opacity:0.9;fill:#FFFFFF;" d="M123.918,284.494L70.8,284.73c-1.7,0.008-3.041-1.443-2.9-3.137l2.621-31.578
								c0.124-1.497,1.372-2.651,2.874-2.658l53.118-0.236c1.7-0.008,3.041,1.443,2.9,3.137l-2.621,31.578
								C126.668,283.334,125.42,284.487,123.918,284.494z"/>
						</g>
						<g>
							<polygon style="opacity:0.1;fill:#FFFFFF;enable-background:new    ;" points="116.759,244.295 105.439,287.401 
								109.312,287.383 120.504,244.279 							"/>
							<polygon style="opacity:0.1;fill:#FFFFFF;enable-background:new    ;" points="122.735,244.268 111.415,287.374 
								119.097,287.34 130.289,244.235 							"/>
						</g>
					</g>
				</g>
			</g>
			<path style="fill:#407BFF;" d="M107.347,287.198l19.603,0.171c0.254,2.285-0.749,3.104-1.997,3.089l-71.744-0.107
				c-1.576-0.002-2.853-1.281-2.853-2.857l0,0L107.347,287.198z"/>
			<path style="opacity:0.2;fill:#FFFFFF;" d="M126.95,287.369c0.254,2.285-0.749,3.104-1.997,3.089l-24.844-0.037
				c1.636-0.04,3.713-1.586,3.713-3.223L126.95,287.369z"/>
			<path style="opacity:0.2;fill:#FFFFFF;" d="M107.347,287.198l19.603,0.171c0.254,2.285-0.749,3.104-1.997,3.089l-71.744-0.107
				c-1.576-0.002-2.853-1.281-2.853-2.857l0,0L107.347,287.198z"/>
		</g>
	</g>
	<g>
		<g id="Group">
			<polygon style="fill:#407BFF;" points="60.868,294.044 60.868,416.384 64.048,416.384 68.048,294.044 			"/>
			<g>
				<polygon style="fill:#407BFF;" points="98.408,298.044 98.408,411.384 101.588,411.384 105.588,298.044 				"/>
				<polygon style="opacity:0.5;" points="98.408,298.044 98.408,411.384 101.588,411.384 105.588,298.044 				"/>
			</g>
			<g>
				<polygon style="fill:#407BFF;" points="251.566,294.044 251.566,411.384 248.386,411.384 244.386,294.044 				"/>
				<polygon style="opacity:0.5;" points="251.566,294.044 251.566,411.384 248.386,411.384 244.386,294.044 				"/>
			</g>
			<g>
				<polygon style="fill:#407BFF;" points="214.026,298.044 214.026,415.637 210.846,415.637 206.846,298.044 				"/>
			</g>
			<g>
				<rect x="36.588" y="290.364" style="fill:#407BFF;" width="236.942" height="5.129"/>
				<g>
					<polygon style="fill:#407BFF;" points="257.948,300.983 53.368,300.983 45.068,295.494 266.248,295.494 					"/>
					<polygon style="opacity:0.5;" points="257.948,300.983 53.368,300.983 45.068,295.494 266.248,295.494 					"/>
				</g>
			</g>
		</g>
	</g>
	<g>
		<g>
			<rect x="244.133" y="288.741" style="fill:#263238;" width="5.279" height="2.091"/>
			<g>
				<g>
					<path style="fill:#407BFF;" d="M249.068,289.771l-39.912-0.428c-4.905,0-6.507-9.271-6.507-12.85l0,0
						c0-6.047,4.948-10.995,10.995-10.995h38.337c3.579,0,6.507,2.928,6.507,6.507C258.489,272.005,257.704,289.771,249.068,289.771
						z"/>
				</g>
				<g style="opacity:0.5;">
					<g style="opacity:0.7;">
						<path style="fill:#FFFFFF;" d="M249.068,289.771l-39.912-0.428c-4.905,0-6.507-9.271-6.507-12.85l0,0
							c0-6.047,4.948-10.995,10.995-10.995h38.337c3.579,0,6.507,2.928,6.507,6.507
							C258.489,272.005,257.704,289.771,249.068,289.771z"/>
					</g>
				</g>
			</g>
			<path style="fill:#407BFF;" d="M253.077,265.598l-38.83-0.082c-5.455-0.012-10.766,1.748-15.135,5.015l-4.693,3.509
				c-1.074,0.803-0.482,2.511,0.858,2.479l38.902-0.955L253.077,265.598z"/>
			<path style="opacity:0.5;fill:#FFFFFF;" d="M253.077,265.598l-37.978-0.081c-6.227,0-11.395,1.255-16.67,5.524l-5.229,3.91
				c-0.701,0.524-0.319,1.639,0.556,1.623l39.769-0.713L253.077,265.598z"/>
			<rect x="195.402" y="288.741" style="fill:#263238;" width="5.279" height="2.091"/>
			<rect x="230.5" y="288.741" style="fill:#263238;" width="5.279" height="2.091"/>
			<rect x="210.117" y="288.741" style="fill:#263238;" width="5.279" height="2.091"/>
			<path style="fill:#407BFF;" d="M233.177,289.771h-35.562c-4.464,0-8.117-3.653-8.117-8.117l0,0c0-4.464,3.653-8.117,8.117-8.117
				h35.562c4.465,0,8.117,3.653,8.117,8.117l0,0C241.294,286.118,237.642,289.771,233.177,289.771z"/>
		</g>
		<g>
			<defs>
				<path id="SVGID_1_" d="M225.814,287.146h-20.835c-2.616,0-4.756-2.14-4.756-4.756l0,0c0-2.616,2.14-4.756,4.756-4.756h20.835
					c2.616,0,4.756,2.14,4.756,4.756l0,0C230.569,285.006,228.429,287.146,225.814,287.146z"/>
			</defs>
			<clipPath id="SVGID_00000154387219662999056790000012333487647292310680_">
				<use xlink:href="#SVGID_1_"  style="overflow:visible;"/>
			</clipPath>
			<g style="clip-path:url(#SVGID_00000154387219662999056790000012333487647292310680_);">
				<rect x="198.731" y="278.585" style="fill:#263238;" width="34.561" height="1.357"/>
				<rect x="198.731" y="280.71" style="fill:#263238;" width="34.561" height="1.357"/>
				<rect x="198.731" y="282.835" style="fill:#263238;" width="34.561" height="1.357"/>
				<rect x="198.731" y="284.96" style="fill:#263238;" width="34.561" height="1.357"/>
			</g>
		</g>
		<g>
			<g>
				<path style="fill:#407BFF;" d="M243.71,265.383l-0.222,0.222l-6.401,2.877c-6.189,2.872-9.57,2.579-8.519,0
					c0,0,1.11-10.298,7.942-10.298C240.48,258.183,243.71,261.413,243.71,265.383z"/>
			</g>
			<g style="opacity:0.7;">
				<path style="fill:#FFFFFF;" d="M243.71,265.383l-0.222,0.222l-6.401,2.877c-6.189,2.872-9.57,2.579-8.519,0
					c0,0,1.11-10.298,7.942-10.298C240.48,258.183,243.71,261.413,243.71,265.383z"/>
			</g>
		</g>
	</g>
</g>
<g id="Character">
	<g>
		<g>
			<g>
				
					<rect x="201.137" y="145.022" transform="matrix(0.9722 -0.234 0.234 0.9722 -28.3637 54.3512)" style="fill:#407BFF;" width="27.501" height="3.392"/>
				
					<rect x="201.137" y="145.022" transform="matrix(0.9722 -0.234 0.234 0.9722 -28.3637 54.3512)" style="opacity:0.3;fill:#FFFFFF;" width="27.501" height="3.392"/>
			</g>
			
				<rect x="217.484" y="138.632" transform="matrix(0.9722 -0.234 0.234 0.9722 -26.4589 59.6276)" style="fill:#407BFF;" width="41.19" height="5.393"/>
			
				<rect x="217.484" y="138.632" transform="matrix(0.9722 -0.234 0.234 0.9722 -26.4589 59.6276)" style="opacity:0.2;fill:#FFFFFF;" width="41.19" height="5.393"/>
			<path style="fill:#407BFF;" d="M285.08,137.907l-43.834,6.223l-1.65-6.857l41.865-14.401l1.702,2.672
				c1.699,2.668,2.474,5.82,2.206,8.971L285.08,137.907z"/>
			<path style="opacity:0.2;fill:#FFFFFF;" d="M285.08,137.907l-43.834,6.223l-1.65-6.857l41.865-14.401l1.702,2.672
				c1.699,2.668,2.474,5.82,2.206,8.971L285.08,137.907z"/>
		</g>
		<g id="character-2--inject-170">
			<path style="fill:#407BFF;" d="M170.83,182.13c-6.71,4.63-16.41,11.12-21.07,14.92l-0.06-0.04c-2.19,2.37-4.26,4.87-6.17,7.48
				l-0.85,1.2l-0.08,0.11l-0.1,0.2c-0.08,0.15-0.15,0.3-0.21,0.46c-0.32,0.86-0.55,1.74-0.7,2.65c-0.32,2.03-0.33,9.84,0.46,18.72
				c0.11,1.24-0.75,2.36-1.98,2.56l-2.17,0.36c-1.17,0.2-2.32-0.5-2.66-1.64c-1.25-4.24-2.15-8.57-2.69-12.96
				c-0.35-2.68-0.45-5.38-0.32-8.08c0.08-1.65,0.34-3.3,0.79-4.89c0.08-0.32,0.19-0.63,0.31-0.93l0.26-0.66l0.34-0.71
				c0.27-0.54,0.4-0.74,0.57-1.04l0.53-0.87c0.67-1.19,1.38-2.34,2.15-3.4c0.77-1.05,1.54-2.1,2.35-3.16
				c1.65-2.2,3.46-4.24,5.29-6.24c0.78-0.85,1.57-1.67,2.38-2.49c0.01-0.01,0.02-0.02,0.02-0.03c6.17-7.61,15.26-17.76,19.69-17.52
				C174.08,166.52,177.08,174.99,170.83,182.13z"/>
			<path style="fill:#FF8B7B;" d="M137.463,229.505c-2.082,2.243,0,5.924,0,5.924l6.77-1.693l-3.682-4.612L137.463,229.505z"/>
			<polygon style="fill:#FF8B7B;" points="144.233,233.736 137.497,235.446 139.917,240.904 144.936,239.787 			"/>
			<path style="fill:#263238;" d="M200.97,148.312c0.42,0.11,0.64,0.7,0.47,1.37c-0.17,0.67-0.61,1.11-1.07,1
				c-0.46-0.11-0.63-0.72-0.46-1.37C200.09,148.672,200.55,148.202,200.97,148.312z"/>
			<path style="fill:#FF5652;" d="M198.34,156.672c0.997,0.542,2.182,0.618,3.24,0.21c-0.846-2.019-1.408-4.146-1.67-6.32
				L198.34,156.672z"/>
			<path style="fill:#263238;" d="M198.29,144.922c-0.001-0.002-0.001-0.003-0.002-0.005c-0.078-0.201,0.021-0.427,0.222-0.505
				c1.162-0.493,2.493-0.385,3.56,0.29c0.028,0.015,0.054,0.034,0.077,0.055c0.159,0.146,0.17,0.392,0.024,0.551
				c-0.146,0.159-0.392,0.169-0.551,0.024c-0.86-0.507-1.91-0.577-2.83-0.19c-0.078,0.025-0.162,0.025-0.24,0
				C198.433,145.115,198.336,145.033,198.29,144.922z"/>
			<path style="fill:#FF8B7B;" d="M188.28,162.832c-2.7,4.03-4.56,8.68,1.25,12.49c0,0,4,7.96-7.64,3.77
				c-10.59-3.81-10.07-10.15-10.07-10.15c5.36-2.36,6.67-11.71,7.6-17.81L188.28,162.832z"/>
			<g>
				<path style="fill:#407BFF;" d="M189.58,175.742c0,0,1.76-5.06-1.34-7.52c-3.1-2.46-13.01-3.37-15.1-3.37
					c-1.9,0-1.75,2.11-1.59,4L189.58,175.742z"/>
				<path style="opacity:0.5;fill:#FFFFFF;" d="M189.58,175.742c0,0,1.76-5.06-1.34-7.52c-3.1-2.46-13.01-3.37-15.1-3.37
					c-1.9,0-1.75,2.11-1.59,4L189.58,175.742z"/>
			</g>
			<path style="opacity:0.3;enable-background:new    ;" d="M165.96,187.192c-4.42,4.34-8.24,7.34-8.24,7.34l-0.5-0.61l11.09-14.93
				L165.96,187.192z"/>
			<path style="fill:#407BFF;" d="M186.018,235.378l-12.408-2.208l-15.56-2.74l-10.24-1.81v-0.03c0.28-5.23,3.15-27.02,8.31-51.6
				c1.43-6.8,6.7-12,13.51-10.67h0.19c5.44,1.07,10.81,2.45,16.09,4.14c3.01,1.09,5.93,2.39,8.76,3.88
				c1.23,0.59,2.08,1.77,2.24,3.13C197.49,182.62,188.018,208.308,186.018,235.378z"/>
			<path style="opacity:0.3;enable-background:new    ;" d="M185.09,188.172c0.407,6.118,2.414,12.022,5.82,17.12
				c0.65-3.17,4.127-16.936,4.787-19.686L185.09,188.172z"/>
			<path style="fill:#FF8B7B;" d="M226.097,154.93l1.874,0.224c3.238-4.286,1.198-9.991,1.198-9.991l-9.128,2.178l1.669,4.209
				C222.441,153.396,224.125,154.694,226.097,154.93z"/>
			<polygon style="fill:#FF8B7B;" points="220.051,147.339 229.169,145.163 228.415,140.295 220.311,139.329 			"/>
			<path style="fill:#407BFF;" d="M244.78,174.77c-0.26-0.93-0.63-1.83-1.1-2.68c-0.37-0.72-0.76-1.35-1.15-1.95
				c-0.58-0.9-6.53-9.81-11.06-15.63c-1.07-1.37-2.66-2.08-4.27-2.08c-1.29,0-2.58,0.45-3.62,1.39c2.84,4.04,7.88,16.16,9.1,18.19
				c0.21,0.35,0.42,0.7,0.62,1.04c0.83-0.05,1.41-0.06,1.67,0c1.17,0.24,2.34-0.7,3.46-0.49l0.44,0.09l0.22,0.04l0.11,0.02
				c-0.15-0.01-0.3,0-0.45,0.01c-0.42,0.05-0.83,0.17-1.22,0.35c-0.71,0.34-1.31,0.87-1.74,1.54c-0.31,0.49-0.51,1.06-0.58,1.64
				c-0.02,0.28-0.02,0.47-0.01,0.6c-0.04-0.19-0.11-0.38-0.2-0.55c-0.18-0.43-0.38-0.86-0.64-1.34c-0.31-0.62-0.67-1.26-1.06-1.91
				c-0.11,0.01-0.22,0.02-0.33,0.03l-0.29-1.07c0,0-52.79,2.11-51.68,9.71c-6.63,19.62,52.33,2.56,54.71,1.86
				c0.03-0.01,0.05-0.02,0.07-0.02c3.91-1.06,6.71-1.89,6.98-2.09c1.37-1.01,2.17-2.63,2.27-4.32
				C245.08,176.35,245,175.55,244.78,174.77z M235.25,177.08c-0.01-0.03-0.04-0.09-0.05-0.21
				C235.23,176.94,235.24,177.01,235.25,177.08z"/>
			<path style="fill:#407BFF;" d="M239.2,172.71c-0.15-0.01-0.3,0-0.45,0.01c-0.42,0.05-0.83,0.17-1.22,0.35
				c-0.71,0.34-1.31,0.87-1.74,1.54c-0.31,0.49-0.51,1.06-0.58,1.64c-0.02,0.28-0.02,0.47-0.01,0.6c-0.04-0.19-0.11-0.38-0.2-0.55
				c-0.18-0.43-0.38-0.86-0.64-1.34c-0.31-0.62-0.67-1.26-1.06-1.91c0.83-0.05,1.41-0.06,1.67,0c1.17,0.24,2.34-0.7,3.46-0.49
				l0.44,0.09l0.22,0.04L239.2,172.71z"/>
			<path style="fill:#FF8B7B;" d="M180.764,137.688c3.703-4.955,10.721-5.969,15.676-2.266c6.97,5.16,5.03,17.22,1.5,23.92
				c-3.93,7.44-14.67,8.57-19.13,0.89c-2.97-5.1-1.65-9.75-0.1-17.81C179.017,140.706,179.72,139.085,180.764,137.688z"/>
			<path style="fill:#263238;" d="M181.892,131.117c-4.175,2.405-7.025,6.657-8.525,11.236c-1.403,4.284-1.551,22.283,15.516,18.069
				c0.302-4.861,2.124-9.617,5.147-13.437c1.668,6.54,1.608-3.657,4.445-5.667c2.132-1.51,5.024-1.436,7.333-2.658
				c3.483-1.844,4.813-6.845,2.707-10.176c0.186,0.92-1.243,3.609-2.128,3.922c0.891-2.673,0.478-4.101,0.29-5.313
				c-0.282,1.412-1.472,4.534-2.785,4.689c0.445-0.874-0.052-3.694-0.723-4.918c0.606,1.106-1.273,4.217-2.038,4.918
				C198.99,133.743,191.925,125.337,181.892,131.117z"/>
			<path style="fill:#FF8B7B;" d="M193.14,144.802c2.03,1.4,2.09,5.11,1.49,7.22c-0.66,2.35-2.71,3.31-4.21,1.08
				c-1.12-1.707-1.651-3.733-1.51-5.77C189.13,144.882,191.11,143.402,193.14,144.802z"/>
			<g>
				<path style="fill:#407BFF;" d="M105.79,397.312c-0.039-0.057-0.039-0.133,0-0.19c0.041-0.056,0.111-0.083,0.18-0.07
					c0.08,0.02,2.51,0.51,3.08,1.46c0.13,0.199,0.159,0.446,0.08,0.67c-0.13,0.44-0.39,0.58-0.58,0.58
					c-0.47,0.07-1.06-0.39-1.58-0.93C106.522,398.371,106.126,397.861,105.79,397.312z M106.31,397.492
					c0.63,0.93,1.68,1.99,2.2,1.93c0.05-0.01,0.2-0.03,0.29-0.34c0.044-0.131,0.026-0.275-0.05-0.39
					c-0.038-0.063-0.085-0.12-0.14-0.17C107.931,398.009,107.145,397.657,106.31,397.492z"/>
				<path style="fill:#407BFF;" d="M105.76,397.212c-0.008-0.063,0.014-0.126,0.06-0.17c0.07-0.06,1.72-1.41,2.81-1.28
					c0.272,0.02,0.521,0.159,0.68,0.38c0.18,0.195,0.205,0.487,0.06,0.71c-0.49,0.68-2.66,0.75-3.49,0.49h-0.07
					C105.78,397.305,105.762,397.259,105.76,397.212z M108.59,396.132c-0.835,0.094-1.621,0.443-2.25,1
					c0.93,0.15,2.46-0.03,2.74-0.43c0.03-0.03,0.09-0.12-0.05-0.3l-0.05-0.06C108.882,396.225,108.742,396.15,108.59,396.132z"/>
				<polygon style="fill:#FF8B7B;" points="106.93,379.202 113.73,381.672 105.1,396.912 98.3,394.442 				"/>
				<path style="fill:#263238;" d="M106.65,397.462c0.11,2.38,1.95,7.07,5,12c0.68,1.1-1.8,2.98-3.94,0.72
					c-2.14-2.26-6.76-7.66-8.31-9.26c-2.53-2.61-3.66-3.54-5.66-5.54c-0.058-0.058-0.109-0.122-0.153-0.191
					c-0.316-0.506-0.163-1.172,0.343-1.488l5.7-3.5c0.26-0.154,0.591-0.108,0.8,0.11l5.74,5.93
					C106.477,396.574,106.648,397.01,106.65,397.462z"/>
				<polygon style="opacity:0.2;enable-background:new    ;" points="102.47,387.062 108.95,390.112 113.73,381.672 106.93,379.202 
									"/>
				<g>
					<path style="fill:#407BFF;" d="M173.61,233.17c0,0-14.42,52.94-21.03,73.43c-7.25,22.43-38.67,81.26-38.67,81.26l-12.33-5.37
						c0,0,23.78-53.56,28.86-76c5.47-24.3,0.74-66.78,17.32-77.87c0.02-0.01,0.03-0.02,0.05-0.03v0.03l10.24,1.81L173.61,233.17z"/>
					<path style="opacity:0.5;fill:#FFFFFF;" d="M173.61,233.17c0,0-6.94,25.48-13.4,47.93c-2.85,9.91-5.61,19.23-7.63,25.5
						c-7.25,22.43-38.67,81.26-38.67,81.26l-12.33-5.37c0,0,23.78-53.56,28.86-76c5.47-24.3,0.74-66.78,17.32-77.87
						c0.02-0.01,0.03-0.02,0.05-0.03v0.03l10.24,1.81L173.61,233.17z"/>
				</g>
				<path style="fill:#263238;" d="M101.83,379.362l-2.12,4.11l13.84,6.12l3.36-4.16L101.83,379.362z"/>
				<path style="opacity:0.3;enable-background:new    ;" d="M167.91,250.922c-4.51,17.49-11,42.12-15.07,54.86
					c0.66-18.52,3.17-54.4,12.95-55.33C166.53,250.365,167.277,250.531,167.91,250.922z"/>
				<path style="fill:#407BFF;" d="M175.653,416.188c-0.071-0.01-0.13-0.062-0.148-0.131c-0.019-0.07,0.009-0.144,0.069-0.185
					c0.105-0.077,2.58-1.693,3.818-1.439c0.236,0.044,0.446,0.178,0.584,0.374c0.174,0.218,0.193,0.521,0.047,0.759
					c-0.283,0.438-1.184,0.625-2.122,0.683C177.151,416.292,176.399,416.271,175.653,416.188z M178.98,414.759
					c-1.008,0.178-1.972,0.551-2.837,1.098c1.379,0.105,3.235-0.02,3.545-0.511c0.076-0.065,0.119-0.178-0.024-0.389
					c-0.082-0.12-0.21-0.199-0.354-0.218C179.2,414.729,179.089,414.736,178.98,414.759L178.98,414.759z"/>
				<path style="fill:#407BFF;" d="M175.532,416.175c-0.053-0.033-0.084-0.093-0.08-0.155c0.005-0.081,0.072-2.068,0.962-2.895
					c0.262-0.252,0.617-0.383,0.98-0.361c0.482,0.02,0.667,0.249,0.679,0.449c0.191,0.81-1.467,2.516-2.331,2.97l-0.07,0.004
					C175.626,416.201,175.576,416.197,175.532,416.175z M177.275,413.101c-0.2,0.017-0.388,0.1-0.536,0.234
					c-0.519,0.665-0.819,1.475-0.858,2.318c0.845-0.593,1.965-1.915,1.854-2.409c-0.012-0.039-0.042-0.188-0.351-0.169l-0.11,0.007
					L177.275,413.101z"/>
				<polygon style="fill:#FF8B7B;" points="167.282,399.494 174.608,399.039 174.934,416.062 167.598,416.517 				"/>
				<path style="fill:#263238;" d="M176.653,415.675c5.15,2.746,8.023,2.708,13.84,3.599c1.275,0.201,0.615,3.298-2.379,3.484
					c-4.98,0.309-6.841,0.194-11.093,0.458c-3.633,0.226-7.792,0.694-10.676,0.873c-0.082,0.006-0.165,0.003-0.246-0.01
					c-0.584-0.091-0.984-0.638-0.892-1.222l1.043-6.607c0.048-0.298,0.297-0.522,0.598-0.538l7.985-0.496
					C175.469,415.196,176.1,415.355,176.653,415.675z"/>
				<polygon style="opacity:0.2;enable-background:new    ;" points="167.272,399.495 167.456,409.062 174.791,408.607 
					174.608,399.039 				"/>
				<g>
					<path style="fill:#407BFF;" d="M186.02,235.379c0,0,1.814,53.44,0.207,75.803c-1.672,23.258-8.419,93.251-8.419,93.251
						l-12.416,0.771c0,0-1.913-70.196-1.64-93.087c0.098-7.791-0.527-18.503-1.415-29.569c-1.975-24.384-5.295-50.439-5.295-50.439
						l16.568,1.062L186.02,235.379z"/>
					<path style="opacity:0.5;fill:#FFFFFF;" d="M186.02,235.379c0,0,1.814,53.44,0.207,75.803
						c-1.672,23.258-8.419,93.251-8.419,93.251l-12.416,0.771c0,0-1.913-70.196-1.64-93.087c0.098-7.791-0.527-18.503-1.415-29.569
						c-1.975-24.384-5.295-50.439-5.295-50.439l16.568,1.062L186.02,235.379z"/>
				</g>
				<path style="fill:#263238;" d="M163.306,402.416l0.695,4.576l15.101-0.937c0,0,0.438-5.207,0.388-5.204L163.306,402.416z"/>
			</g>
		</g>
	</g>
</g>
</svg>
